<?xml version="1.0" encoding="UTF-8" standalone="no"?>
<!-- Created with Inkscape (http://www.inkscape.org/) -->

<svg
   xmlns:dc="http://purl.org/dc/elements/1.1/"
   xmlns:cc="http://creativecommons.org/ns#"
   xmlns:rdf="http://www.w3.org/1999/02/22-rdf-syntax-ns#"
   xmlns:svg="http://www.w3.org/2000/svg"
   xmlns="http://www.w3.org/2000/svg"
   xmlns:xlink="http://www.w3.org/1999/xlink"
   xmlns:sodipodi="http://sodipodi.sourceforge.net/DTD/sodipodi-0.dtd"
   xmlns:inkscape="http://www.inkscape.org/namespaces/inkscape"
   id="svg2"
   version="1.1"
   inkscape:version="0.48.4 r9939"
   width="134.16875"
   height="103.78906"
   xml:space="preserve"
   sodipodi:docname="Logo RA-GAS sw.svg"
   inkscape:export-filename="/mnt/src/gaswarnanlagen.com/redesign-gaswarnanlagen.com/app/assets/images/Logo RA-GAS 126.png"
   inkscape:export-xdpi="22.82"
   inkscape:export-ydpi="22.82"><sodipodi:namedview
     pagecolor="#ffffff"
     bordercolor="#666666"
     borderopacity="1"
     objecttolerance="10"
     gridtolerance="10"
     guidetolerance="10"
     inkscape:pageopacity="0"
     inkscape:pageshadow="2"
     inkscape:window-width="1920"
     inkscape:window-height="1021"
     id="namedview4"
     showgrid="false"
     inkscape:zoom="0.76075472"
     inkscape:cx="-319.41964"
     inkscape:cy="49.564055"
     inkscape:window-x="0"
     inkscape:window-y="27"
     inkscape:window-maximized="1"
     inkscape:current-layer="g10"
     fit-margin-top="0"
     fit-margin-left="0"
     fit-margin-right="0"
     fit-margin-bottom="0" /><metadata
     id="metadata8"><rdf:RDF><cc:Work
         rdf:about=""><dc:format>image/svg+xml</dc:format><dc:type
           rdf:resource="http://purl.org/dc/dcmitype/StillImage" /><dc:title></dc:title></cc:Work></rdf:RDF></metadata><defs
     id="defs6"><clipPath
       id="clipPath18"
       clipPathUnits="userSpaceOnUse"><path
         id="path20"
         d="m 0,0 3974.97,0 0,867 L 0,867 0,0 z"
         inkscape:connector-curvature="0" /></clipPath><radialGradient
       id="radialGradient102"
       spreadMethod="pad"
       gradientTransform="matrix(63.051,0,0,-63.051,22.5186,26.6787)"
       gradientUnits="userSpaceOnUse"
       r="1"
       cy="0"
       cx="0"
       fy="0"
       fx="0"><stop
         id="stop104"
         offset="0"
         style="stop-opacity:1;stop-color:#a5a5a5" /><stop
         id="stop106"
         offset="0.394531"
         style="stop-opacity:1;stop-color:#333333" /><stop
         id="stop108"
         offset="1"
         style="stop-opacity:1;stop-color:#333333" /></radialGradient><radialGradient
       id="radialGradient102-27"
       spreadMethod="pad"
       gradientTransform="matrix(63.051,0,0,-63.051,22.5186,26.6787)"
       gradientUnits="userSpaceOnUse"
       r="1"
       cy="0"
       cx="0"
       fy="0"
       fx="0"><stop
         id="stop3052"
         offset="0"
         style="stop-opacity:1;stop-color:#a5a5a5" /><stop
         id="stop3054"
         offset="0.394531"
         style="stop-opacity:1;stop-color:#333333" /><stop
         id="stop3056"
         offset="1"
         style="stop-opacity:1;stop-color:#333333" /></radialGradient><filter
       id="filter3079"
       x="0"
       y="0"
       width="1"
       height="1"
       inkscape:label="Lightness-Contrast"
       inkscape:menu="Color"
       inkscape:menu-tooltip="Increase or decrease lightness and contrast"
       color-interpolation-filters="sRGB"><feFlood
         id="feFlood3081"
         result="result1"
         flood-opacity="0"
         flood-color="rgb(128,128,128)" /><feBlend
         id="feBlend3083"
         in2="SourceGraphic"
         mode="normal"
         result="result2" /><feComposite
         id="feComposite3085"
         in2="SourceGraphic"
         k2="1"
         operator="arithmetic"
         result="result3"
         k1="0"
         k3="0"
         k4="0" /><feComposite
         id="feComposite3087"
         in2="SourceGraphic"
         operator="in"
         result="fbSourceGraphic" /><feColorMatrix
         result="fbSourceGraphicAlpha"
         in="fbSourceGraphic"
         values="0 0 0 -1 0 0 0 0 -1 0 0 0 0 -1 0 0 0 0 1 0"
         id="feColorMatrix3089" /><feFlood
         id="feFlood3091"
         result="result1"
         flood-opacity="0"
         flood-color="rgb(128,128,128)"
         in="fbSourceGraphic" /><feBlend
         id="feBlend3093"
         in2="fbSourceGraphic"
         mode="normal"
         result="result2" /><feComposite
         id="feComposite3095"
         in2="fbSourceGraphic"
         k2="1"
         operator="arithmetic"
         result="result4"
         k1="0"
         k3="0"
         k4="0" /><feComposite
         id="feComposite3097"
         in2="fbSourceGraphic"
         operator="in" /></filter><radialGradient
       inkscape:collect="always"
       xlink:href="#radialGradient102-27"
       id="radialGradient3109"
       gradientUnits="userSpaceOnUse"
       gradientTransform="matrix(63.051,0,0,-63.051,22.5186,26.6787)"
       spreadMethod="pad"
       cx="0"
       cy="0"
       fx="0"
       fy="0"
       r="1" /><radialGradient
       inkscape:collect="always"
       xlink:href="#radialGradient102-27"
       id="radialGradient3163"
       gradientUnits="userSpaceOnUse"
       gradientTransform="matrix(63.051,0,0,-63.051,22.5186,26.6787)"
       spreadMethod="pad"
       cx="0"
       cy="0"
       fx="0"
       fy="0"
       r="1" /><radialGradient
       inkscape:collect="always"
       xlink:href="#radialGradient102-27"
       id="radialGradient3176"
       gradientUnits="userSpaceOnUse"
       gradientTransform="matrix(6.3051,0,0,-6.3051,2.25186,2.66787)"
       spreadMethod="pad"
       cx="0"
       cy="0"
       fx="0"
       fy="0"
       r="1" /><radialGradient
       inkscape:collect="always"
       xlink:href="#radialGradient102-27"
       id="radialGradient3241"
       gradientUnits="userSpaceOnUse"
       gradientTransform="matrix(6.3051,0,0,-6.3051,2.25186,2.66787)"
       spreadMethod="pad"
       cx="0"
       cy="0"
       fx="0"
       fy="0"
       r="1" /></defs><g
     transform="matrix(1.25,0,0,-1.25,0,108.4375)"
     inkscape:label="ink_ext_XXXXXX"
     inkscape:groupmode="layer"
     id="g10"><g
       id="g3218"><path
         id="path22"
         style="opacity:0.6;fill:none;stroke:#333333;stroke-width:0.49569997;stroke-linecap:butt;stroke-linejoin:miter;stroke-miterlimit:3.8636899;stroke-opacity:1;stroke-dasharray:none"
         d="m 0.248047,45.2207 c 0,22.7914 18.474953,41.2672 41.266453,41.2672 22.7914,0 41.2664,-18.4758 41.2664,-41.2672 0,-22.791 -18.475,-41.2664 -41.2664,-41.2664 -22.7915,0 -41.266453,18.4754 -41.266453,41.2664 l 0,0 z"
         inkscape:connector-curvature="0" /><path
         id="path24"
         style="opacity:0.6;fill:#ffffff;fill-opacity:1;fill-rule:nonzero;stroke:none"
         d="m 107.335,48.541 c -0.991,-0.248 -15.3662,16.6059 -37.6725,-0.9914 0,0 -10.4098,-11.4012 -27.5109,-8.9226 0,0 13.3836,-12.1446 35.6898,6.4441 0.1902,0.1586 4.4609,7.1875 29.4936,3.4699 l 0,0"
         inkscape:connector-curvature="0" /><path
         id="path26"
         style="opacity:0.6;fill:#ffffff;fill-opacity:1;fill-rule:nonzero;stroke:none"
         d="m 99.4039,59.4098 c -0.7769,-0.1946 -12.0434,13.014 -29.5254,-0.777 0,0 -8.159,-8.9351 -21.5617,-6.9933 0,0 10.4895,-9.5176 27.9719,5.0503 0.1488,0.1247 3.4961,5.6332 23.1152,2.72 l 0,0"
         inkscape:connector-curvature="0" /><path
         id="path28"
         style="opacity:0.6;fill:#ffffff;fill-opacity:1;fill-rule:nonzero;stroke:none"
         d="m 93.1504,68.5785 c -0.5992,-0.15 -9.2836,10.0324 -22.7602,-0.5988 0,0 -6.289,-6.8883 -16.6207,-5.391 0,0 8.0856,-7.3367 21.5621,3.8933 0.1153,0.0961 2.6954,4.3426 17.8188,2.0965 l 0,0"
         inkscape:connector-curvature="0" /><path
         id="path88"
         style="opacity:0.6;fill:#8c8c8c;fill-opacity:1;fill-rule:nonzero;stroke:none"
         d="m 105.335,51.541 c -0.991,-0.248 -15.3662,16.6059 -37.6729,-0.9918 0,0 -10.4094,-11.4008 -27.5105,-8.9222 0,0 13.3836,-12.1446 35.6898,6.4441 0.1902,0.159 4.4609,7.1875 29.4936,3.4699 l 0,0"
         inkscape:connector-curvature="0" /><path
         id="path90"
         style="opacity:0.6;fill:none;stroke:#8c8c8c;stroke-width:0.49569997;stroke-linecap:butt;stroke-linejoin:miter;stroke-miterlimit:3.8636899;stroke-opacity:1;stroke-dasharray:none"
         d="m 105.335,51.541 c -0.991,-0.248 -15.3662,16.6059 -37.6729,-0.9918 0,0 -10.4094,-11.4008 -27.5105,-8.9222 0,0 13.3836,-12.1446 35.6898,6.4441 0.1902,0.159 4.4609,7.1875 29.4936,3.4699 l 0,0 z"
         inkscape:connector-curvature="0" /><path
         id="path92"
         style="opacity:0.6;fill:#8c8c8c;fill-opacity:1;fill-rule:nonzero;stroke:none"
         d="m 97.4039,62.4098 c -0.7769,-0.1946 -12.0434,13.014 -29.5254,-0.777 0,0 -8.159,-8.9351 -21.5617,-6.9933 0,0 10.4895,-9.5176 27.9719,5.0503 0.1488,0.1247 3.4961,5.6332 23.1152,2.72 l 0,0"
         inkscape:connector-curvature="0" /><path
         id="path94"
         style="opacity:0.6;fill:none;stroke:#8c8c8c;stroke-width:0.49569997;stroke-linecap:butt;stroke-linejoin:miter;stroke-miterlimit:3.8636899;stroke-opacity:1;stroke-dasharray:none"
         d="m 97.4039,62.4098 c -0.7769,-0.1946 -12.0434,13.014 -29.5254,-0.777 0,0 -8.159,-8.9351 -21.5617,-6.9933 0,0 10.4895,-9.5176 27.9719,5.0503 0.1488,0.1247 3.4961,5.6332 23.1152,2.72 l 0,0 z"
         inkscape:connector-curvature="0" /><path
         id="path96"
         style="opacity:0.6;fill:#8c8c8c;fill-opacity:1;fill-rule:nonzero;stroke:none"
         d="m 91.1504,71.5785 c -0.5992,-0.15 -9.2836,10.0324 -22.7602,-0.5988 0,0 -6.289,-6.8883 -16.6207,-5.391 0,0 8.0856,-7.3367 21.5621,3.8933 0.1153,0.0961 2.6954,4.3426 17.8188,2.0965 l 0,0"
         inkscape:connector-curvature="0" /><path
         id="path98"
         style="opacity:0.6;fill:none;stroke:#8c8c8c;stroke-width:0.49569997;stroke-linecap:butt;stroke-linejoin:miter;stroke-miterlimit:3.8636899;stroke-opacity:1;stroke-dasharray:none"
         d="m 91.1504,71.5785 c -0.5992,-0.15 -9.2836,10.0324 -22.7602,-0.5988 0,0 -6.289,-6.8883 -16.6207,-5.391 0,0 8.0856,-7.3367 21.5621,3.8933 0.1153,0.0961 2.6954,4.3426 17.8188,2.0965 l 0,0 z"
         inkscape:connector-curvature="0" /><path
         id="path110"
         style="opacity:0.6;fill:url(#radialGradient3241);fill-opacity:1;fill-rule:evenodd;stroke:none"
         d="m 0.248047,45.2207 c 0,22.7914 18.475353,41.2664 41.266453,41.2664 22.7914,0 41.2668,-18.475 41.2668,-41.2664 0,-22.791 -18.4754,-41.2664 -41.2668,-41.2664 -22.7911,0 -41.266453,18.4754 -41.266453,41.2664"
         inkscape:connector-curvature="0" /><path
         id="path112"
         style="opacity:0.6;fill:none;stroke:#333333;stroke-width:0.49566698;stroke-linecap:butt;stroke-linejoin:miter;stroke-miterlimit:3.8636899;stroke-opacity:1;stroke-dasharray:none"
         d="m 0.248047,45.2207 c 0,22.7914 18.475353,41.2664 41.266453,41.2664 22.7914,0 41.2668,-18.475 41.2668,-41.2664 0,-22.791 -18.4754,-41.2664 -41.2668,-41.2664 -22.7911,0 -41.266453,18.4754 -41.266453,41.2664 z"
         inkscape:connector-curvature="0" /><path
         id="path114"
         style="opacity:0.6;fill:#ffffff;fill-opacity:1;fill-rule:evenodd;stroke:none"
         d="m 107.335,48.541 c -0.991,-0.248 -15.3662,16.6055 -37.6729,-0.9918 0,0 -10.4094,-11.4008 -27.5105,-8.9222 0,0 13.3836,-12.1446 35.689,6.4441 0.1907,0.1586 4.4621,7.1875 29.4944,3.4699"
         inkscape:connector-curvature="0" /><path
         id="path116"
         style="opacity:0.6;fill:#ffffff;fill-opacity:1;fill-rule:evenodd;stroke:none"
         d="M 99.4031,59.409 C 98.627,59.2152 87.3605,72.4238 69.8777,58.6324 c 0,0 -8.1582,-8.9351 -21.5613,-6.9929 0,0 10.4895,-9.5176 27.9719,5.0503 0.1492,0.1247 3.4969,5.6332 23.1148,2.7192"
         inkscape:connector-curvature="0" /><path
         id="path118"
         style="opacity:0.6;fill:#ffffff;fill-opacity:1;fill-rule:evenodd;stroke:none"
         d="m 93.1504,68.5781 c -0.5996,-0.1496 -9.2844,10.0328 -22.7598,-0.5984 0,0 -6.289,-6.8879 -16.6211,-5.391 0,0 8.086,-7.3367 21.5618,3.8933 0.1152,0.0961 2.6953,4.3422 17.8191,2.0961"
         inkscape:connector-curvature="0" /><path
         id="path120"
         style="opacity:0.6;fill:#8c8c8c;fill-opacity:1;fill-rule:evenodd;stroke:none"
         d="m 105.335,51.541 c -0.991,-0.248 -15.3662,16.6055 -37.6729,-0.9918 0,0 -10.4094,-11.4008 -27.5105,-8.9222 0,0 13.3836,-12.1446 35.689,6.4441 0.1907,0.1586 4.4621,7.1875 29.4944,3.4699"
         inkscape:connector-curvature="0" /><path
         id="path122"
         style="opacity:0.6;fill:none;stroke:#8c8c8c;stroke-width:0.49566698;stroke-linecap:butt;stroke-linejoin:miter;stroke-miterlimit:3.8636899;stroke-opacity:1;stroke-dasharray:none"
         d="m 105.335,51.541 c -0.991,-0.248 -15.3662,16.6055 -37.6729,-0.9918 0,0 -10.4094,-11.4008 -27.5105,-8.9222 0,0 13.3836,-12.1446 35.689,6.4441 0.1907,0.1586 4.4621,7.1875 29.4944,3.4699 z"
         inkscape:connector-curvature="0" /><path
         id="path124"
         style="opacity:0.6;fill:#8c8c8c;fill-opacity:1;fill-rule:evenodd;stroke:none"
         d="M 97.4031,62.409 C 96.627,62.2152 85.3605,75.4238 67.8777,61.6324 c 0,0 -8.1582,-8.9351 -21.5613,-6.9929 0,0 10.4895,-9.5176 27.9719,5.0503 0.1492,0.1247 3.4969,5.6332 23.1148,2.7192"
         inkscape:connector-curvature="0" /><path
         id="path126"
         style="opacity:0.6;fill:none;stroke:#8c8c8c;stroke-width:0.49566698;stroke-linecap:butt;stroke-linejoin:miter;stroke-miterlimit:3.8636899;stroke-opacity:1;stroke-dasharray:none"
         d="M 97.4031,62.409 C 96.627,62.2152 85.3605,75.4238 67.8777,61.6324 c 0,0 -8.1582,-8.9351 -21.5613,-6.9929 0,0 10.4895,-9.5176 27.9719,5.0503 0.1492,0.1247 3.4969,5.6332 23.1148,2.7192 z"
         inkscape:connector-curvature="0" /><path
         id="path128"
         style="opacity:0.6;fill:#8c8c8c;fill-opacity:1;fill-rule:evenodd;stroke:none"
         d="m 91.1504,71.5781 c -0.5996,-0.1496 -9.2844,10.0328 -22.7598,-0.5984 0,0 -6.289,-6.8879 -16.6211,-5.391 0,0 8.086,-7.3367 21.5618,3.8933 0.1152,0.0961 2.6953,4.3422 17.8191,2.0961"
         inkscape:connector-curvature="0" /><path
         id="path130"
         style="opacity:0.6;fill:none;stroke:#8c8c8c;stroke-width:0.49566698;stroke-linecap:butt;stroke-linejoin:miter;stroke-miterlimit:3.8636899;stroke-opacity:1;stroke-dasharray:none"
         d="m 91.1504,71.5781 c -0.5996,-0.1496 -9.2844,10.0328 -22.7598,-0.5984 0,0 -6.289,-6.8879 -16.6211,-5.391 0,0 8.086,-7.3367 21.5618,3.8933 0.1152,0.0961 2.6953,4.3422 17.8191,2.0961 z"
         inkscape:connector-curvature="0" /></g></g></svg>